<svg width="102" height="101" viewBox="0 0 102 101" fill="none" xmlns="http://www.w3.org/2000/svg">
<path d="M49.6144 0C44.1092 0 39.6456 4.16146 39.6456 9.29167C39.6456 14.4271 44.1092 18.5833 49.6144 18.5833C55.1196 18.5833 59.5831 14.4271 59.5831 9.29167C59.5831 4.16146 55.1196 0 49.6144 0Z" fill="url(#paint0_linear_2005_106)"/>
<path d="M49.6144 0C44.1092 0 39.6456 4.16146 39.6456 9.29167C39.6456 14.4271 44.1092 18.5833 49.6144 18.5833C55.1196 18.5833 59.5831 14.4271 59.5831 9.29167C59.5831 4.16146 55.1196 0 49.6144 0Z" fill="url(#paint1_linear_2005_106)"/>
<path d="M87.552 26.5993C88.064 24.8073 88.832 23.3567 89.856 22.2473C90.88 21.0527 91.9893 20.4553 93.184 20.4553C96.0853 20.4553 98.176 21.01 99.456 22.1193C100.736 23.2287 101.376 25.1487 101.376 27.8793C101.376 28.6473 100.779 30.8233 99.584 34.4073C96.9387 42.514 94.0373 52.5407 90.88 64.4873C90.112 67.218 89.472 69.6073 88.96 71.6553C88.5333 73.7033 88.1493 75.41 87.808 76.7753C85.76 85.5647 83.968 92.178 82.432 96.6153C81.92 97.8953 81.024 98.9193 79.744 99.6873C78.464 100.37 77.0987 100.711 75.648 100.711C74.1973 100.711 72.7467 100.413 71.296 99.8153C69.9307 99.1327 68.9493 98.3647 68.352 97.5113C65.7067 92.306 62.4213 85.2233 58.496 76.2633C54.656 67.218 51.6693 59.3247 49.536 52.5833C44.2453 65.9807 39.5093 78.9087 35.328 91.3673C35.072 92.1353 34.7733 92.9887 34.432 93.9273C34.176 94.7807 33.8773 95.6767 33.536 96.6153C32.9387 97.8953 32.0853 98.9193 30.976 99.6873C29.8667 100.37 28.6293 100.711 27.264 100.711C25.728 100.711 24.2347 100.413 22.784 99.8153C21.3333 99.1327 20.352 98.3647 19.84 97.5113C18.7307 95.634 17.536 92.7327 16.256 88.8073C15.0613 84.882 13.44 79.378 11.392 72.2953L8.192 61.4153C5.97333 54.3327 4.05333 47.0793 2.432 39.6553C0.810667 32.2313 0 27.794 0 26.3433C0 24.5513 0.896 23.1433 2.688 22.1193C4.48 21.01 6.272 20.4553 8.064 20.4553C9.088 20.4553 10.1547 20.7967 11.264 21.4793C12.3733 22.0767 13.0987 23.1433 13.44 24.6793C16.4267 40.6367 20.8213 59.154 26.624 80.2313C28.8427 74.9407 31.2747 68.498 33.92 60.9033C36.6507 53.3087 39.2533 45.9273 41.728 38.7593L43.008 34.9193C43.3493 33.6393 44.2027 32.658 45.568 31.9753C47.0187 31.2073 48.4693 30.8233 49.92 30.8233C51.7973 30.8233 53.3333 31.2927 54.528 32.2313C55.7227 33.17 56.4907 34.194 56.832 35.3033C56.9173 35.6447 58.624 40.722 61.952 50.5353C65.28 60.3487 69.248 70.2473 73.856 80.2313C75.5627 75.1967 77.6107 67.1327 80 56.0393L81.92 47.5913C84.224 38.546 86.1013 31.5487 87.552 26.5993Z" fill="url(#paint2_linear_2005_106)"/>
<defs>
<linearGradient id="paint0_linear_2005_106" x1="50.688" y1="0" x2="50.688" y2="100.711" gradientUnits="userSpaceOnUse">
<stop stop-color="white"/>
<stop offset="1" stop-color="white"/>
</linearGradient>
<linearGradient id="paint1_linear_2005_106" x1="50.688" y1="0" x2="50.688" y2="100.711" gradientUnits="userSpaceOnUse">
<stop stop-color="white"/>
<stop offset="1" stop-color="white"/>
</linearGradient>
<linearGradient id="paint2_linear_2005_106" x1="92.727" y1="68.5822" x2="45.3492" y2="-7.46814" gradientUnits="userSpaceOnUse">
<stop stop-color="white"/>
</linearGradient>
</defs>
</svg>
